<svg xmlns="http://www.w3.org/2000/svg" viewBox="0 0 512 512">
  <rect width="512" height="512" rx="96" fill="#0a0e17"/>
  <!-- baseball -->
  <circle cx="256" cy="256" r="148" fill="#f3f5fa"/>
  <!-- stitches: two arcs and stitch marks -->
  <path d="M 168 192 Q 256 256 168 320" stroke="#f0605d" stroke-width="6" fill="none" stroke-linecap="round"/>
  <path d="M 344 192 Q 256 256 344 320" stroke="#f0605d" stroke-width="6" fill="none" stroke-linecap="round"/>
  <g stroke="#f0605d" stroke-width="4" stroke-linecap="round">
    <line x1="186" y1="212" x2="174" y2="206"/>
    <line x1="180" y1="232" x2="166" y2="230"/>
    <line x1="180" y1="252" x2="166" y2="254"/>
    <line x1="180" y1="272" x2="166" y2="280"/>
    <line x1="186" y1="296" x2="174" y2="306"/>
    <line x1="326" y1="212" x2="338" y2="206"/>
    <line x1="332" y1="232" x2="346" y2="230"/>
    <line x1="332" y1="252" x2="346" y2="254"/>
    <line x1="332" y1="272" x2="346" y2="280"/>
    <line x1="326" y1="296" x2="338" y2="306"/>
  </g>
  <!-- 円グラフ風アクセント (収支のシンボル) -->
  <circle cx="256" cy="256" r="148" fill="none" stroke="#2dd4a0" stroke-width="14" stroke-dasharray="280 650"/>
</svg>
